<svg width="178" height="12" viewBox="0 0 178 12" fill="none" xmlns="http://www.w3.org/2000/svg">
<rect opacity="0.1" x="15" y="-6.99048" width="2" height="30" transform="rotate(30 15 -6.99048)" fill="#101010"/>
<rect opacity="0.1" x="23.7321" y="-6.99048" width="2" height="30" transform="rotate(30 23.7321 -6.99048)" fill="#101010"/>
<rect opacity="0.1" x="32.4641" y="-6.99048" width="2" height="30" transform="rotate(30 32.4641 -6.99048)" fill="#101010"/>
<rect opacity="0.1" x="41.1962" y="-6.99048" width="2" height="30" transform="rotate(30 41.1962 -6.99048)" fill="#101010"/>
<rect opacity="0.1" x="49.9282" y="-6.99048" width="2" height="30" transform="rotate(30 49.9282 -6.99048)" fill="#101010"/>
<rect opacity="0.1" x="58.6603" y="-6.99048" width="2" height="30" transform="rotate(30 58.6603 -6.99048)" fill="#101010"/>
<rect opacity="0.1" x="67.3923" y="-6.99048" width="2" height="30" transform="rotate(30 67.3923 -6.99048)" fill="#101010"/>
<rect opacity="0.1" x="76.1243" y="-6.99048" width="2" height="30" transform="rotate(30 76.1243 -6.99048)" fill="#101010"/>
<rect opacity="0.1" x="84.8564" y="-6.99048" width="2" height="30" transform="rotate(30 84.8564 -6.99048)" fill="#101010"/>
<rect opacity="0.1" x="93.5884" y="-6.99048" width="2" height="30" transform="rotate(30 93.5884 -6.99048)" fill="#101010"/>
<rect opacity="0.1" x="102.321" y="-6.99048" width="2" height="30" transform="rotate(30 102.321 -6.99048)" fill="#101010"/>
<rect opacity="0.1" x="111.052" y="-6.99048" width="2" height="30" transform="rotate(30 111.052 -6.99048)" fill="#101010"/>
<rect opacity="0.1" x="119.785" y="-6.99048" width="2" height="30" transform="rotate(30 119.785 -6.99048)" fill="#101010"/>
<rect opacity="0.1" x="128.517" y="-6.99048" width="2" height="30" transform="rotate(30 128.517 -6.99048)" fill="#101010"/>
<rect opacity="0.1" x="137.249" y="-6.99048" width="2" height="30" transform="rotate(30 137.249 -6.99048)" fill="#101010"/>
<rect opacity="0.1" x="145.981" y="-6.99048" width="2" height="30" transform="rotate(30 145.981 -6.99048)" fill="#101010"/>
<rect opacity="0.1" x="154.713" y="-6.99048" width="2" height="30" transform="rotate(30 154.713 -6.99048)" fill="#101010"/>
<rect opacity="0.1" x="163.445" y="-6.99048" width="2" height="30" transform="rotate(30 163.445 -6.99048)" fill="#101010"/>
<rect opacity="0.1" x="172.177" y="-6.99048" width="2" height="30" transform="rotate(30 172.177 -6.99048)" fill="#101010"/>
<rect opacity="0.1" x="180.909" y="-6.99048" width="2" height="30" transform="rotate(30 180.909 -6.99048)" fill="#101010"/>
<rect opacity="0.1" x="189.641" y="-6.99048" width="2" height="30" transform="rotate(30 189.641 -6.99048)" fill="#101010"/>
</svg>
